<?xml version="1.0" encoding="UTF-8"?>
<svg version="1.1" viewBox="0 0 2048 2048"  xmlns="http://www.w3.org/2000/svg" fill="#fff">
  <style>
    /* CSS style for the SVG path */
    .svg-path {
      fill: #fff; 
      stroke: #000;
      stroke-width: 4;
    }
  </style>
<path transform="translate(861,31)" d="m0 0h21l33 2 31 4 29 6 26 7 26 9 24 10 25 12 23 13 21 14 18 13 13 11 11 9 15 14 17 17 7 8 11 13 15 20 18 27 13 23 12 24 13 32 9 28 7 28 5 28 3 24 1 15v48l-2 24-3 23-5 26-8 30-9 27-11 26-11 23-9 16-11 18-8 12-12 16-13 16-7 9h-2l-2 4-9 9-7 8-8 7-8 8-11 9-16 13-17 12-17 11-15 9-23 12 21 6 26 7 36 12 25 9 38 16 34 16 25 13 23 13 26 16 15 10 19 13 19 14 13 10 16 13 26 22 7-1 13-4 10-6 17-12 13-10 16-12 15-10 17-8 13-4 12-2h30l18 4 15 6 13 7 14 10 21 16 11 8 10 7 12 7 10 3 31 3 47 3 15 3 15 5 16 8 11 8 12 11 8 9 10 15 7 16 6 22 12 50 5 13 6 10 27 27 8 7 7 6v2l4 2 10 10v2h2l10 14 6 10 6 15 4 15 2 15v11l-2 17-4 15-9 21-11 22-9 17-8 18-2 10v15l6 54 1 8v22l-3 17-4 13-8 17-8 12-11 12-7 7-15 10-16 8-23 10-5 2 3 9 15 32 13 28 15 32 15 33 13 27 14 31 3 10v13l-3 9-6 10-9 8-8 4-8 2h-12l-91-16-2 6-6 10-28 48-10 17-8 9-14 7-5 1h-14l-12-4-10-9-6-8-15-31-26-56-16-34-12-26-17-37-3-5-11-4-17-4-7-1h-8l-15 3-18 5-8 16-17 36-13 28-14 31-8 16-13 28-12 26-7 13-8 9-8 5-10 3h-14l-10-3-9-6-8-9-13-22-15-26-14-24-4-7-11 1-81 14h-11l-10-3-8-5-5-4-7-10-4-12v-11l4-13 7-15 13-27 12-26 19-41 15-32 15-33 7-16-13-5-25-11-16-10-11-10-5-5-9-10-12-20v-2h-1119l-10-3-9-7-4-5-5-12v-11l6-42 7-38 7-30 8-30 11-35 10-28 13-32 9-20 12-25 14-27 9-16 12-20 12-19 15-22 13-18 12-16 9-11 14-17 10-11 9-11 9-9 7-8 23-23 8-7 9-9 11-9 12-11 25-20 17-13 18-13 15-10 17-11 28-17 22-12 23-12 29-14 36-15 27-10 36-12 29-8 20-5 1-1-16-8-19-11-19-12-16-12-13-10-15-13-15-14-16-16-7-8-9-10-10-13-14-19-14-22-14-25-12-25-12-31-9-29-6-26-5-30-3-29-1-23v-13l2-34 4-30 6-30 8-29 10-28 14-32 10-19 10-17 13-20 10-14 13-16 5-7h2l2-4 15-16 19-19 8-7 17-14 19-14 23-15 21-12 26-13 27-11 30-10 28-7 27-5 37-4zm2 65-31 2-27 4-27 6-29 9-27 11-17 8-18 10-22 14-14 10-16 13-14 12-21 21v2h-2l-9 11-13 16-14 20-13 22-13 25-11 27-8 24-7 28-4 24-2 14-1 13v49l3 29 4 23 7 28 11 32 12 27 10 19 11 18 11 16 10 13 9 11 11 12 9 10 7 7 8 7 10 9 17 13 17 12 27 16 24 12 25 10 24 8 24 6 37 6 22 2h39l30-3 24-4 25-6 26-8 27-11 17-8 22-12 24-16 16-12 13-11 12-11 6-5 7-8 9-9v-2h2l9-11 13-17 12-18 9-15 12-23 10-22 9-25 6-21 5-23 4-26 2-22v-42l-3-30-4-24-7-28-11-33-12-27-12-23-12-19-12-17-11-14-12-14-27-27-11-9-15-12-27-18-21-12-22-11-25-10-24-8-29-7-24-4-23-2-21-1zm-11 806-38 2-40 4-15 2 2 4 16 12 14 11 18 14 13 10 14 11 13 10 18 14 4 3 5-1 15-12 16-12 15-12 16-12 28-22 17-13 3-3v-2l-44-5-27-2-26-1zm-179 26-37 11-29 10 1 5 12 21 15 27 14 25 13 23 15 27 13 23 14 25 13 23 6 10 2 5 4-1 11-13 9-11 10-11 8-10 22-26 5-6v-2h2l18-22 10-11 2-5-12-9-28-22-26-20-18-14-17-13-18-14-15-12-13-10zm397 1-10 8-13 10-14 11-39 30-17 13-15 12-12 9-14 11-13 10-3 2 2 4 9 11 12 14 9 11 24 28 9 11 12 14 9 11 9 10 2 4 4-1 14-25 13-23 14-25 10-18 14-25 26-46 15-27 12-21-1-3-44-15-19-5zm-527 47-19 9-22 12-26 15-19 12-15 10-17 12-11 8-13 10-16 13-13 11-12 11-8 7-17 16-14 14-7 8-16 17-11 13-9 11-12 15-14 19-14 20-11 17-17 28-13 24-13 25-11 24-14 34-12 34-11 36-8 32-8 39-2 11v5h681l-3-5-8-8-7-8-12-13-9-11-8-8-7-8-14-15-7-8-8-11-3-7v-16l9-45 12-58 18-88-1-3-6 7-9 6-8 3h-14l-10-4-7-6-12-20-15-27-13-23-15-27-12-21-15-27-13-23-14-25-13-23-28-50zm656 0-13 24-14 24-7 13-13 23-14 25-13 23-15 27-28 50-13 23-10 18-8 13-5 6-8 5-7 2h-14l-9-4-8-6-6-7-1 3 5 22 15 73 20 97 1 9-2 9-5 10-10 11-7 8-9 10-1 3h-2l-7 8-11 12-7 8-12 13-9 10-6 7h241l6-49v-23l-5-15-9-19-10-19-13-27-6-21-1-7v-27l3-16 7-19 8-14 8-11 11-12 10-9 8-8 8-7 9-9 8-7v-2h2l8-11 5-12 6-23 11-46 8-20 10-16 9-11 12-11 14-9 17-8 4-1v-2l-17-12-18-13-25-16-15-9-23-13-23-12-12-6zm373 67-12 2-9 4-11 7-13 10-19 14-17 12-15 9-15 6-16 4-23 3-49 3-16 2-12 5-10 8-7 9-5 12-9 37-8 31-6 16-9 17-7 9-8 9v2h-2v2h-2v2h-2v2h-2v2h-2v2h-2v2l-4 2-13 13-8 7-12 12-7 8-5 11-2 8v14l3 11 5 11 22 44 8 19 5 19 2 18-1 21-4 36-2 15v23l4 11 6 10 7 7 14 8 37 16 24 11 15 9 9 7 10 9 11 14 14 20 10 16 10 15 7 9 9 8 10 5 6 2 7 1h8l15-3 42-13 25-6 16-2h14l20 3 23 6 39 12 15 3 14-1 14-5 11-8 8-10 14-22 8-12 13-19 9-11 5-6 2-1v-2l4-2 12-9 14-8 19-9 40-17 11-6 10-9 6-9 4-11 1-7v-11l-6-50-1-11v-27l3-16 7-20 16-33 15-30 3-11v-18l-4-12-6-10-19-19-8-7-16-15-12-12-11-14-6-10-6-12-7-22-9-37-6-24-7-14-6-7-11-7-10-4-16-2-48-3-24-3-19-5-17-8-21-14-19-14-17-13-14-9-12-4zm-700 49-12 14-9 11-10 12-8 36-9 43-15 73-17 82-13 64 2 4 11 12 9 10 1 2h2l2 4 16 17 7 8 11 12 7 8 14 15 7 8 4 4 4-1 7-8 18-20 1-3h2l7-8 2-4h2l9-11 16-17 9-10 11-12v-2h2l4-5v-8l-20-97-18-87-21-102-3-8-9-11-11-13-10-12zm934 633-8 12-14 22-11 16-11 13-12 10-15 9-11 5-15 5-17 3 1 5 14 29 11 24 16 34 4 9h2l13-22 15-26 7-11 1-3 4-2 8-5 7-2 14 1 58 10h2l-1-5-18-39-15-32-26-56zm-466 1-12 25-15 33-9 19-26 56v2l14-2 53-9 11 1 12 6 8 10 16 28 13 22 3 4h2l9-21 8-16 7-16 21-45v-3l-20-4-19-7-14-8-14-11-7-7-8-10-10-15-13-20-8-12z"/>
<path transform="translate(1570,1159)" d="m0 0 24 1 22 3 26 6 25 9 19 9 20 12 16 12 13 11 11 10 7 8 11 13 12 17 10 17 10 21 8 22 6 24 3 22 1 11v26l-3 26-5 24-7 21-7 16-8 16-10 17-16 21-14 15-11 11-14 11-14 10-19 11-23 11-24 8-22 5-19 3-13 1h-24l-26-3-24-5-24-8-20-9-15-8-14-9-17-13-13-12-7-6-7-8-11-13-13-19-11-19-9-20-8-24-5-21-3-21-1-16v-13l2-23 4-23 7-24 7-19 12-24 9-14 12-16 9-11 5-6h2v-2h2l2-4 8-7 12-10 15-11 22-13 22-10 24-8 17-4 17-3zm-12 66-21 3-21 6-15 6-17 9-12 8-14 11-18 18-13 18-10 17-9 21-5 18-3 15-1 9v32l3 19 5 19 6 16 8 16 10 16 9 11 12 13 11 10 14 10 15 9 20 9 20 6 15 3 21 2h13l25-3 23-6 20-8 18-10 14-10 13-11 12-12 13-17 9-15 8-17 7-21 4-19 2-23-1-22-3-19-6-21-8-19-11-19-12-16-2-3h-2l-2-4-11-11-14-11-17-11-23-11-19-6-20-4-9-1z"/>
</svg>
