<svg version="1.1" id="Layer_1" xmlns="http://www.w3.org/2000/svg" xmlns:xlink="http://www.w3.org/1999/xlink" x="0px" y="0px"
	 width="100%" viewBox="0 0 536 466" enable-background="new 0 0 536 466" xml:space="preserve">
<path fill="transparent" opacity="1.000000" stroke="none" 
    d="
      M323.000000,467.000000 
      C215.333359,467.000000 108.166718,467.000000 1.000057,467.000000 
      C1.000038,311.666718 1.000038,156.333466 1.000019,1.000141 
      C179.666565,1.000094 358.333130,1.000094 536.999756,1.000047 
      C536.999878,156.333191 536.999878,311.666382 536.999939,466.999786 
      C465.833344,467.000000 394.666656,467.000000 323.000000,467.000000 
      M334.499817,288.184814 
      C344.440216,288.184814 354.380585,288.184814 364.716736,288.184814 
      C364.716736,290.580536 364.716705,292.390320 364.716736,294.200073 
      C364.717102,320.193542 364.713623,346.186981 364.719574,372.180450 
      C364.722382,384.419128 369.412903,389.184143 381.500275,389.188202 
      C413.492249,389.198944 445.484192,389.198547 477.476166,389.188232 
      C489.216431,389.184448 494.086945,384.271240 494.089142,372.459961 
      C494.098236,323.305664 494.100922,274.151337 494.105347,224.997040 
      C494.105560,222.331039 494.107117,219.665024 494.096252,216.999054 
      C494.051666,206.028275 488.908691,200.957336 477.778961,200.932831 
      C470.447510,200.916702 463.115906,200.943466 455.784546,200.912994 
      C454.527863,200.907761 453.271973,200.711426 451.873016,200.591110 
      C451.873016,198.525665 451.872955,196.864685 451.872955,195.203720 
      C451.873169,159.212753 451.881989,123.221779 451.868500,87.230804 
      C451.864288,76.041603 446.407623,70.445564 435.444611,70.444534 
      C322.639648,70.433899 209.834717,70.435455 97.029770,70.446701 
      C85.468964,70.447853 80.085510,75.651932 80.053955,87.145378 
      C79.968414,118.301407 80.000633,149.457764 79.987389,180.613983 
      C79.984573,187.231964 79.986977,193.849960 79.986977,200.936600 
      C75.000259,200.936600 70.379143,200.934982 65.758026,200.936905 
      C53.645473,200.941971 48.426373,206.138733 48.423725,218.270676 
      C48.413872,263.425995 48.416866,308.581329 48.431877,353.736664 
      C48.432350,355.155243 48.616978,356.573761 48.716724,358.006287 
      C122.737938,358.006287 196.323868,358.006287 270.358856,358.006287 
      C270.358856,351.224365 270.358856,344.640594 270.358856,337.471436 
      C272.583099,337.471436 274.364624,337.471741 276.146179,337.471405 
      C288.976288,337.469025 301.806366,337.467590 314.636475,337.463684 
      C330.964844,337.458710 332.258881,336.157837 332.196381,319.823181 
      C332.161652,310.745972 328.939911,307.485321 319.862335,307.468689 
      C305.199371,307.441833 290.536377,307.461334 275.873383,307.461273 
      C274.110962,307.461243 272.348511,307.461273 270.709106,307.461273 
      C270.709106,300.642059 270.709106,294.577545 270.709106,288.184387 
      C291.889557,288.184387 312.694702,288.184387 334.499817,288.184814 
      M259.465851,368.178558 
      C233.150055,368.178558 206.834244,368.178558 180.643539,368.178558 
      C177.659119,375.659576 175.619873,377.043823 167.791214,377.059570 
      C160.458847,377.074310 153.114365,376.801971 145.797546,377.139709 
      C139.044403,377.451508 134.467468,375.116852 132.739197,368.501587 
      C104.635780,368.501587 76.729027,368.501587 48.876957,368.501587 
      C47.194828,379.422699 48.952526,386.466095 63.813694,386.252563 
      C101.300941,385.713837 138.801270,386.089966 176.296356,386.090515 
      C203.792648,386.090942 231.288940,386.091644 258.785217,386.058472 
      C264.838806,386.051178 268.959442,383.498352 269.745667,378.696930 
      C270.290009,375.372772 269.850342,371.887482 269.850342,368.178558 
      C266.403229,368.178558 263.426910,368.178558 259.465851,368.178558 
    z"/>
  
<path fill="#F7F7F7" opacity="1.000000" stroke="none" 
	d="
M333.999817,288.184601 
	C312.694702,288.184387 291.889557,288.184387 270.709106,288.184387 
	C270.709106,294.577545 270.709106,300.642059 270.709106,307.461273 
	C272.348511,307.461273 274.110962,307.461243 275.873383,307.461273 
	C290.536377,307.461334 305.199371,307.441833 319.862335,307.468689 
	C328.939911,307.485321 332.161652,310.745972 332.196381,319.823181 
	C332.258881,336.157837 330.964844,337.458710 314.636475,337.463684 
	C301.806366,337.467590 288.976288,337.469025 276.146179,337.471405 
	C274.364624,337.471741 272.583099,337.471436 270.358856,337.471436 
	C270.358856,344.640594 270.358856,351.224365 270.358856,358.006287 
	C196.323868,358.006287 122.737938,358.006287 48.716724,358.006287 
	C48.616978,356.573761 48.432350,355.155243 48.431877,353.736664 
	C48.416866,308.581329 48.413872,263.425995 48.423725,218.270676 
	C48.426373,206.138733 53.645473,200.941971 65.758026,200.936905 
	C70.379143,200.934982 75.000259,200.936600 79.986977,200.936600 
	C79.986977,193.849960 79.984573,187.231964 79.987389,180.613983 
	C80.000633,149.457764 79.968414,118.301407 80.053955,87.145378 
	C80.085510,75.651932 85.468964,70.447853 97.029770,70.446701 
	C209.834717,70.435455 322.639648,70.433899 435.444611,70.444534 
	C446.407623,70.445564 451.864288,76.041603 451.868500,87.230804 
	C451.881989,123.221779 451.873169,159.212753 451.872955,195.203720 
	C451.872955,196.864685 451.873016,198.525665 451.873016,200.591110 
	C453.271973,200.711426 454.527863,200.907761 455.784546,200.912994 
	C463.115906,200.943466 470.447510,200.916702 477.778961,200.932831 
	C488.908691,200.957336 494.051666,206.028275 494.096252,216.999054 
	C494.107117,219.665024 494.105560,222.331039 494.105347,224.997040 
	C494.100922,274.151337 494.098236,323.305664 494.089142,372.459961 
	C494.086945,384.271240 489.216431,389.184448 477.476166,389.188232 
	C445.484192,389.198547 413.492249,389.198944 381.500275,389.188202 
	C369.412903,389.184143 364.722382,384.419128 364.719574,372.180450 
	C364.713623,346.186981 364.717102,320.193542 364.716736,294.200073 
	C364.716705,292.390320 364.716736,290.580536 364.716736,288.184814 
	C354.380585,288.184814 344.440216,288.184814 333.999817,288.184601 
M177.500092,79.809761 
	C150.839401,79.810471 124.178719,79.809959 97.518036,79.812691 
	C90.187271,79.813438 89.096748,80.887169 89.097481,88.109184 
	C89.100929,122.101791 89.107536,156.094391 89.112877,190.087006 
	C89.113419,193.542542 89.112953,196.998062 89.112953,200.901001 
	C91.356506,200.901001 93.144104,200.901016 94.931702,200.901016 
	C147.753632,200.901001 200.575546,200.897400 253.397476,200.903732 
	C265.112701,200.905136 270.367065,206.214127 270.383362,218.056290 
	C270.397369,228.220749 270.376709,238.385239 270.374512,248.549713 
	C270.372314,258.521027 270.374023,268.492340 270.374023,278.718933 
	C301.863831,278.718933 332.941132,278.718933 364.542725,278.718933 
	C364.542725,276.762177 364.542725,274.978455 364.542755,273.194702 
	C364.543213,254.365448 364.526764,235.536163 364.550720,216.706940 
	C364.564026,206.247086 369.774414,200.965332 380.133942,200.947021 
	C399.129791,200.913467 418.125702,200.935074 437.121613,200.933701 
	C438.879669,200.933578 440.637756,200.933670 442.674164,200.933670 
	C442.674164,198.778702 442.674103,197.293335 442.674164,195.807968 
	C442.675873,159.982391 442.679169,124.156815 442.678009,88.331238 
	C442.677765,80.839272 441.609131,79.807106 433.944977,79.807236 
	C348.796692,79.808716 263.648407,79.809097 177.500092,79.809761 
M241.499527,349.003082 
	C247.911484,349.003082 254.323425,349.003082 260.905884,349.003082 
	C260.905884,346.949219 260.905823,345.629944 260.905853,344.310638 
	C260.906860,302.339722 260.911591,260.368835 260.905304,218.397919 
	C260.904236,211.225037 259.732147,210.078186 252.462372,210.077454 
	C190.338852,210.071152 128.215332,210.069489 66.091812,210.068314 
	C58.761894,210.068176 57.779594,211.047501 57.778595,218.447937 
	C57.772957,260.252350 57.775524,302.056793 57.775307,343.861206 
	C57.775299,345.472290 57.775311,347.083374 57.775311,349.003082 
	C118.998589,349.003082 179.749191,349.003082 241.499527,349.003082 
M430.499725,358.431915 
	C448.566803,358.431915 466.633850,358.431915 484.940704,358.431915 
	C484.940704,356.498505 484.940918,355.189819 484.940674,353.881165 
	C484.932037,308.425385 484.921112,262.969604 484.917175,217.513824 
	C484.916626,211.272324 483.750275,210.102493 477.277405,210.101807 
	C445.308502,210.098434 413.339569,210.101974 381.370667,210.116974 
	C374.875793,210.120026 373.916687,211.092316 373.915680,217.638824 
	C373.908691,262.928162 373.912048,308.217499 373.912079,353.506836 
	C373.912079,355.102997 373.912018,356.699158 373.912018,358.431610 
	C392.873596,358.431610 411.186646,358.431610 430.499725,358.431915 
M425.608582,376.006226 
	C430.540375,377.010468 433.958649,375.275146 434.875916,371.301605 
	C435.665619,367.880646 433.398163,363.562347 429.890167,363.520782 
	C427.374878,363.490997 423.923523,364.870483 422.512756,366.804901 
	C420.210205,369.962097 421.556732,373.409363 425.608582,376.006226 
z"/>
<path fill="#F9F9F9" opacity="1.000000" stroke="none" 
	d="
M259.958221,368.178558 
	C263.426910,368.178558 266.403229,368.178558 269.850342,368.178558 
	C269.850342,371.887482 270.290009,375.372772 269.745667,378.696930 
	C268.959442,383.498352 264.838806,386.051178 258.785217,386.058472 
	C231.288940,386.091644 203.792648,386.090942 176.296356,386.090515 
	C138.801270,386.089966 101.300941,385.713837 63.813694,386.252563 
	C48.952526,386.466095 47.194828,379.422699 48.876957,368.501587 
	C76.729027,368.501587 104.635780,368.501587 132.739197,368.501587 
	C134.467468,375.116852 139.044403,377.451508 145.797546,377.139709 
	C153.114365,376.801971 160.458847,377.074310 167.791214,377.059570 
	C175.619873,377.043823 177.659119,375.659576 180.643539,368.178558 
	C206.834244,368.178558 233.150055,368.178558 259.958221,368.178558 
z"/>
<path fill="transparent" opacity="1.000000" stroke="none"
	d="
M178.000107,79.809761 
	C263.648407,79.809097 348.796692,79.808716 433.944977,79.807236 
	C441.609131,79.807106 442.677765,80.839272 442.678009,88.331238 
	C442.679169,124.156815 442.675873,159.982391 442.674164,195.807968 
	C442.674103,197.293335 442.674164,198.778702 442.674164,200.933670 
	C440.637756,200.933670 438.879669,200.933578 437.121613,200.933701 
	C418.125702,200.935074 399.129791,200.913467 380.133942,200.947021 
	C369.774414,200.965332 364.564026,206.247086 364.550720,216.706940 
	C364.526764,235.536163 364.543213,254.365448 364.542755,273.194702 
	C364.542725,274.978455 364.542725,276.762177 364.542725,278.718933 
	C332.941132,278.718933 301.863831,278.718933 270.374023,278.718933 
	C270.374023,268.492340 270.372314,258.521027 270.374512,248.549713 
	C270.376709,238.385239 270.397369,228.220749 270.383362,218.056290 
	C270.367065,206.214127 265.112701,200.905136 253.397476,200.903732 
	C200.575546,200.897400 147.753632,200.901001 94.931702,200.901016 
	C93.144104,200.901016 91.356506,200.901001 89.112953,200.901001 
	C89.112953,196.998062 89.113419,193.542542 89.112877,190.087006 
	C89.107536,156.094391 89.100929,122.101791 89.097481,88.109184 
	C89.096748,80.887169 90.187271,79.813438 97.518036,79.812691 
	C124.178719,79.809959 150.839401,79.810471 178.000107,79.809761 
M299.269989,135.298416 
	C294.491608,133.134460 289.713226,130.970505 284.769348,128.731598 
	C283.849823,137.630661 283.855164,137.618301 290.958801,140.691483 
	C300.595276,144.860428 310.222595,149.050629 320.665253,153.583969 
	C310.132721,158.128433 300.511963,162.260132 290.907654,166.429810 
	C283.667297,169.573196 283.676697,169.594864 284.830139,177.810135 
	C285.138092,177.855576 285.514038,178.038910 285.755157,177.928329 
	C299.664093,171.549164 313.615875,165.256866 327.376770,158.571808 
	C328.748108,157.905624 329.501465,154.839340 329.520477,152.877090 
	C329.535492,151.327850 328.367981,148.978439 327.059814,148.332275 
	C318.113007,143.912918 308.990295,139.849655 299.269989,135.298416 
M220.797531,141.400894 
	C215.720551,143.893326 210.546936,146.213715 205.623459,148.979385 
	C204.077057,149.848038 202.312485,151.890823 202.273346,153.437378 
	C202.234741,154.961166 203.926529,157.099289 205.435806,157.983353 
	C209.731949,160.499802 214.312622,162.533737 218.798401,164.722549 
	C228.025986,169.225159 237.264694,173.704926 246.605209,178.245819 
	C248.095764,169.494949 248.046341,169.385971 241.030151,166.145874 
	C236.497711,164.052780 231.954971,161.981995 227.425415,159.882690 
	C223.178696,157.914459 218.943268,155.921860 214.046249,153.633072 
	C223.558121,149.178665 232.128067,145.141296 240.719162,141.149475 
	C248.121475,137.710007 248.132141,137.732971 246.602203,128.840805 
	C238.158585,132.958847 229.819000,137.026138 220.797531,141.400894 
M274.335419,133.943924 
	C276.413116,127.573959 278.490845,121.203987 280.547607,114.898277 
	C274.412476,112.976982 271.714996,115.001785 270.484039,120.563629 
	C269.268768,126.054520 267.066528,131.325058 265.330200,136.702896 
	C260.493774,151.682526 255.674438,166.667679 250.733322,182.007706 
	C253.600449,182.007706 256.028107,182.007706 258.737305,182.007706 
	C263.844360,166.294754 268.977997,150.500015 274.335419,133.943924 
z"/>
<path fill="transparent" opacity="1.000000" stroke="none" 
	d="
M240.999664,349.003082 
	C179.749191,349.003082 118.998589,349.003082 57.775311,349.003082 
	C57.775311,347.083374 57.775299,345.472290 57.775307,343.861206 
	C57.775524,302.056793 57.772957,260.252350 57.778595,218.447937 
	C57.779594,211.047501 58.761894,210.068176 66.091812,210.068314 
	C128.215332,210.069489 190.338852,210.071152 252.462372,210.077454 
	C259.732147,210.078186 260.904236,211.225037 260.905304,218.397919 
	C260.911591,260.368835 260.906860,302.339722 260.905853,344.310638 
	C260.905823,345.629944 260.905884,346.949219 260.905884,349.003082 
	C254.323425,349.003082 247.911484,349.003082 240.999664,349.003082 
M127.455582,274.084137 
	C125.516815,275.036591 123.494400,275.852234 121.659180,276.974091 
	C119.006775,278.595520 118.862091,280.812897 121.601593,282.224792 
	C130.140884,286.625702 138.825424,290.744751 147.772552,295.129395 
	C147.772552,292.829834 147.772552,291.045593 147.772552,289.226196 
	C141.114594,286.096313 134.589783,283.029022 127.468338,279.681274 
	C133.523346,276.852234 138.695892,274.182770 144.070084,272.012634 
	C147.708557,270.543396 148.797287,268.393951 147.413620,264.345367 
	C140.919174,267.532257 134.534241,270.665375 127.455582,274.084137 
M191.635681,278.937958 
	C191.155594,279.636536 190.831848,280.676422 190.170517,280.979309 
	C185.185303,283.262482 180.224747,285.654572 175.073181,287.501312 
	C171.185852,288.894867 169.982254,290.961090 171.591370,294.903564 
	C180.010986,291.008820 188.315887,287.222382 196.566406,283.320984 
	C199.499756,281.933868 200.327484,277.949280 197.813492,276.698029 
	C189.143082,272.382599 180.282059,268.450134 171.420670,264.337952 
	C170.251541,268.443939 171.316925,270.468781 174.862228,271.761230 
	C180.319427,273.750671 185.576996,276.287781 191.635681,278.937958 
M157.638351,273.928955 
	C155.138687,281.599243 152.639023,289.269531 150.129791,296.969116 
	C153.653519,298.325684 155.357269,297.390320 156.215591,293.996857 
	C157.269958,289.828247 158.809616,285.782440 160.137985,281.683075 
	C162.924530,273.083740 165.710068,264.484100 168.524124,255.797821 
	C165.162872,254.743713 163.398041,255.178894 162.535873,258.496307 
	C161.246857,263.456207 159.458954,268.286499 157.638351,273.928955 
z"/>
<path fill="transparent" opacity="1.000000" stroke="none"
	d="
M429.999695,358.431763 
	C411.186646,358.431610 392.873596,358.431610 373.912018,358.431610 
	C373.912018,356.699158 373.912079,355.102997 373.912079,353.506836 
	C373.912048,308.217499 373.908691,262.928162 373.915680,217.638824 
	C373.916687,211.092316 374.875793,210.120026 381.370667,210.116974 
	C413.339569,210.101974 445.308502,210.098434 477.277405,210.101807 
	C483.750275,210.102493 484.916626,211.272324 484.917175,217.513824 
	C484.921112,262.969604 484.932037,308.425385 484.940674,353.881165 
	C484.940918,355.189819 484.940704,356.498505 484.940704,358.431915 
	C466.633850,358.431915 448.566803,358.431915 429.999695,358.431763 
M444.151611,288.753357 
	C437.143036,291.622284 437.143036,291.622284 437.419891,295.426849 
	C442.816254,292.958496 448.152130,290.710602 453.296722,288.087524 
	C456.088684,286.664001 456.156403,284.476349 453.208221,283.022186 
	C448.036865,280.471466 442.748505,278.157990 437.509155,275.745117 
	C437.233643,276.165741 436.958099,276.586334 436.682587,277.006958 
	C438.949463,282.823761 446.386963,281.743225 450.400696,285.843506 
	C448.404297,286.761810 446.617706,287.583588 444.151611,288.753357 
M419.845276,290.864166 
	C416.427185,289.203522 413.009094,287.542908 409.569916,285.872040 
	C413.230682,281.706879 420.374207,282.798615 421.489136,276.495941 
	C415.964691,278.314911 410.898590,280.720032 405.867950,283.197205 
	C403.383942,284.420380 402.234558,286.046936 405.450897,287.691254 
	C410.693542,290.371490 416.043152,292.842438 421.347656,295.401703 
	C421.622040,295.164246 421.896454,294.926758 422.170868,294.689301 
	C421.632477,293.505280 421.094086,292.321289 419.845276,290.864166 
M428.201874,291.877380 
	C430.547272,284.683502 432.892639,277.489624 435.447601,269.652924 
	C433.858795,269.939850 432.340973,269.874451 432.195068,270.290344 
	C429.117706,279.063507 426.194977,287.890900 423.241974,296.707672 
	C423.897736,297.018707 424.553497,297.329742 425.209290,297.640808 
	C426.143707,295.972809 427.078125,294.304810 428.201874,291.877380 
z"/>
<path fill="#0B0B0B" opacity="1.000000" stroke="none" 
	d="
M425.270447,375.852051 
	C421.556732,373.409363 420.210205,369.962097 422.512756,366.804901 
	C423.923523,364.870483 427.374878,363.490997 429.890167,363.520782 
	C433.398163,363.562347 435.665619,367.880646 434.875916,371.301605 
	C433.958649,375.275146 430.540375,377.010468 425.270447,375.852051 
z"/>
<path fill="#F2F2F2" opacity="1.000000" stroke="none" 
	d="
M299.597137,135.485016 
	C308.990295,139.849655 318.113007,143.912918 327.059814,148.332275 
	C328.367981,148.978439 329.535492,151.327850 329.520477,152.877090 
	C329.501465,154.839340 328.748108,157.905624 327.376770,158.571808 
	C313.615875,165.256866 299.664093,171.549164 285.755157,177.928329 
	C285.514038,178.038910 285.138092,177.855576 284.830139,177.810135 
	C283.676697,169.594864 283.667297,169.573196 290.907654,166.429810 
	C300.511963,162.260132 310.132721,158.128433 320.665253,153.583969 
	C310.222595,149.050629 300.595276,144.860428 290.958801,140.691483 
	C283.855164,137.618301 283.849823,137.630661 284.769348,128.731598 
	C289.713226,130.970505 294.491608,133.134460 299.597137,135.485016 
z"/>
<path fill="#F4F4F4" opacity="1.000000" stroke="none" 
	d="
M221.138474,141.247162 
	C229.819000,137.026138 238.158585,132.958847 246.602203,128.840805 
	C248.132141,137.732971 248.121475,137.710007 240.719162,141.149475 
	C232.128067,145.141296 223.558121,149.178665 214.046249,153.633072 
	C218.943268,155.921860 223.178696,157.914459 227.425415,159.882690 
	C231.954971,161.981995 236.497711,164.052780 241.030151,166.145874 
	C248.046341,169.385971 248.095764,169.494949 246.605209,178.245819 
	C237.264694,173.704926 228.025986,169.225159 218.798401,164.722549 
	C214.312622,162.533737 209.731949,160.499802 205.435806,157.983353 
	C203.926529,157.099289 202.234741,154.961166 202.273346,153.437378 
	C202.312485,151.890823 204.077057,149.848038 205.623459,148.979385 
	C210.546936,146.213715 215.720551,143.893326 221.138474,141.247162 
z"/>
<path fill="#F3F3F3" opacity="1.000000" stroke="none" 
	d="
M274.223511,134.324585 
	C268.977997,150.500015 263.844360,166.294754 258.737305,182.007706 
	C256.028107,182.007706 253.600449,182.007706 250.733322,182.007706 
	C255.674438,166.667679 260.493774,151.682526 265.330200,136.702896 
	C267.066528,131.325058 269.268768,126.054520 270.484039,120.563629 
	C271.714996,115.001785 274.412476,112.976982 280.547607,114.898277 
	C278.490845,121.203987 276.413116,127.573959 274.223511,134.324585 
z"/>
<path fill="#EEEEEE" opacity="1.000000" stroke="none" 
	d="
M127.802444,273.941345 
	C134.534241,270.665375 140.919174,267.532257 147.413620,264.345367 
	C148.797287,268.393951 147.708557,270.543396 144.070084,272.012634 
	C138.695892,274.182770 133.523346,276.852234 127.468338,279.681274 
	C134.589783,283.029022 141.114594,286.096313 147.772552,289.226196 
	C147.772552,291.045593 147.772552,292.829834 147.772552,295.129395 
	C138.825424,290.744751 130.140884,286.625702 121.601593,282.224792 
	C118.862091,280.812897 119.006775,278.595520 121.659180,276.974091 
	C123.494400,275.852234 125.516815,275.036591 127.802444,273.941345 
z"/>
<path fill="#EFEFEF" opacity="1.000000" stroke="none" 
	d="
M191.277466,278.765259 
	C185.576996,276.287781 180.319427,273.750671 174.862228,271.761230 
	C171.316925,270.468781 170.251541,268.443939 171.420670,264.337952 
	C180.282059,268.450134 189.143082,272.382599 197.813492,276.698029 
	C200.327484,277.949280 199.499756,281.933868 196.566406,283.320984 
	C188.315887,287.222382 180.010986,291.008820 171.591370,294.903564 
	C169.982254,290.961090 171.185852,288.894867 175.073181,287.501312 
	C180.224747,285.654572 185.185303,283.262482 190.170517,280.979309 
	C190.831848,280.676422 191.155594,279.636536 191.277466,278.765259 
z"/>
<path fill="#ECECEC" opacity="1.000000" stroke="none" 
	d="
M157.760803,273.550415 
	C159.458954,268.286499 161.246857,263.456207 162.535873,258.496307 
	C163.398041,255.178894 165.162872,254.743713 168.524124,255.797821 
	C165.710068,264.484100 162.924530,273.083740 160.137985,281.683075 
	C158.809616,285.782440 157.269958,289.828247 156.215591,293.996857 
	C155.357269,297.390320 153.653519,298.325684 150.129791,296.969116 
	C152.639023,289.269531 155.138687,281.599243 157.760803,273.550415 
z"/>
<path fill="#E7E7E7" opacity="1.000000" stroke="none" 
	d="
M444.491364,288.579346 
	C446.617706,287.583588 448.404297,286.761810 450.400696,285.843506 
	C446.386963,281.743225 438.949463,282.823761 436.682587,277.006958 
	C436.958099,276.586334 437.233643,276.165741 437.509155,275.745117 
	C442.748505,278.157990 448.036865,280.471466 453.208221,283.022186 
	C456.156403,284.476349 456.088684,286.664001 453.296722,288.087524 
	C448.152130,290.710602 442.816254,292.958496 437.419891,295.426849 
	C437.143036,291.622284 437.143036,291.622284 444.491364,288.579346 
z"/>
<path fill="#E4E4E4" opacity="1.000000" stroke="none" 
	d="
M420.200500,291.000732 
	C421.094086,292.321289 421.632477,293.505280 422.170868,294.689301 
	C421.896454,294.926758 421.622040,295.164246 421.347656,295.401703 
	C416.043152,292.842438 410.693542,290.371490 405.450897,287.691254 
	C402.234558,286.046936 403.383942,284.420380 405.867950,283.197205 
	C410.898590,280.720032 415.964691,278.314911 421.489136,276.495941 
	C420.374207,282.798615 413.230682,281.706879 409.569916,285.872040 
	C413.009094,287.542908 416.427185,289.203522 420.200500,291.000732 
z"/>
<path fill="#E2E2E2" opacity="1.000000" stroke="none" 
	d="
M428.107208,292.257080 
	C427.078125,294.304810 426.143707,295.972809 425.209290,297.640808 
	C424.553497,297.329742 423.897736,297.018707 423.241974,296.707672 
	C426.194977,287.890900 429.117706,279.063507 432.195068,270.290344 
	C432.340973,269.874451 433.858795,269.939850 435.447601,269.652924 
	C432.892639,277.489624 430.547272,284.683502 428.107208,292.257080 
z"/>
</svg>